<svg xmlns="http://www.w3.org/2000/svg" width="1200" height="800" viewBox="0 0 1200 800" role="img" aria-label="Customer Segmentation (KM_AE) thumbnail">
	<defs>
		<linearGradient id="bg" x1="0" y1="0" x2="1" y2="1">
			<stop offset="0" stop-color="#f8fafc" />
			<stop offset="1" stop-color="#f0fdf4" />
		</linearGradient>
		<linearGradient id="accent" x1="0" y1="0" x2="1" y2="0">
			<stop offset="0" stop-color="#38bdf8" />
			<stop offset="0.55" stop-color="#22c55e" />
			<stop offset="1" stop-color="#a78bfa" />
		</linearGradient>
		<filter id="shadow" x="-20%" y="-20%" width="140%" height="140%">
			<feDropShadow dx="0" dy="10" stdDeviation="16" flood-color="#0f172a" flood-opacity="0.12" />
		</filter>
	</defs>

	<rect width="1200" height="800" rx="28" fill="url(#bg)" />

	<g filter="url(#shadow)">
		<rect x="120" y="140" width="960" height="520" rx="26" fill="#ffffff" />
	</g>

	<g transform="translate(190,210)">
		<rect x="0" y="0" width="600" height="380" rx="24" fill="#f8fafc" stroke="#e2e8f0" stroke-width="6" />
		<g transform="translate(60,60)">
			<path d="M40 280V40" stroke="#0f172a" stroke-opacity="0.22" stroke-width="10" stroke-linecap="round" />
			<path d="M40 280H500" stroke="#0f172a" stroke-opacity="0.22" stroke-width="10" stroke-linecap="round" />
			<g fill="#38bdf8" opacity="0.85">
				<circle cx="160" cy="90" r="10" />
				<circle cx="185" cy="110" r="10" />
				<circle cx="210" cy="95" r="10" />
				<circle cx="195" cy="135" r="10" />
				<circle cx="230" cy="120" r="10" />
			</g>
			<g fill="#22c55e" opacity="0.85">
				<circle cx="340" cy="170" r="10" />
				<circle cx="370" cy="155" r="10" />
				<circle cx="400" cy="175" r="10" />
				<circle cx="360" cy="195" r="10" />
				<circle cx="390" cy="205" r="10" />
			</g>
			<g fill="#a78bfa" opacity="0.85">
				<circle cx="270" cy="250" r="10" />
				<circle cx="300" cy="265" r="10" />
				<circle cx="330" cy="255" r="10" />
				<circle cx="315" cy="285" r="10" />
				<circle cx="345" cy="275" r="10" />
			</g>
		</g>
	</g>

	<!-- AE tag -->
	<g transform="translate(830,260)">
		<rect x="0" y="0" width="220" height="120" rx="24" fill="#0f172a" opacity="0.92" />
		<path d="M44 78 L78 36 L112 78" fill="none" stroke="url(#accent)" stroke-width="10" stroke-linecap="round" stroke-linejoin="round" />
		<path d="M140 38H190" stroke="#ffffff" stroke-opacity="0.7" stroke-width="10" stroke-linecap="round" />
		<path d="M140 58H182" stroke="#ffffff" stroke-opacity="0.55" stroke-width="10" stroke-linecap="round" />
		<path d="M140 78H174" stroke="#ffffff" stroke-opacity="0.4" stroke-width="10" stroke-linecap="round" />
	</g>

	<rect x="120" y="676" width="960" height="10" rx="5" fill="url(#accent)" opacity="0.9" />
</svg>
